<?xml version="1.0" encoding="utf-8"?>
<!-- Generator: Adobe Illustrator 27.1.0, SVG Export Plug-In . SVG Version: 6.00 Build 0)  -->
<svg version="1.1" xmlns="http://www.w3.org/2000/svg" xmlns:xlink="http://www.w3.org/1999/xlink" x="0px" y="0px"
	 viewBox="0 0 612 792" style="enable-background:new 0 0 612 792;" xml:space="preserve">
<g>
	 
	<path fill="#FF0000"/>
	<path d="M561.8,307.9c-0.9-0.1-1.5-0.3-2-0.3c-37.9,0-75.8,0-113.7-0.1c-3.3,0-3.4,1.7-3.4,4.2c0.1,76.6,0.1,153.2,0.1,229.8
		c0,5.1-0.5,5.5-5.8,5.5c-33.6,0-67.3,0-100.9-0.1c-3.7,0-4.6,1.1-4.6,4.7c0.1,33.5,0.1,67,0.1,100.5c0,1.2,0.1,2.4,0.2,3.7
		c76.7,0,153.1,0,229.9,0C561.8,539.8,561.8,424,561.8,307.9z M49.3,655.6c76.9,0,153.5,0,230.2,0c0.1-0.8,0.2-1.4,0.2-1.9
		c0-34.3-0.1-68.6,0.1-102.9c0-3.8-1.8-3.8-4.5-3.8c-33.9,0-67.8,0-101.7,0c-6.3,0-6.4-0.1-6.4-6.5c0-64.8,0-129.6,0-194.3
		c0-11.1,0-22.2,0.1-33.3c0-5.3,0.2-5.3-5-5.3c-36.2,0-72.5,0-108.7,0c-1.3,0-2.7,0-4.2,0C49.3,423.8,49.3,539.5,49.3,655.6z
		 M332,159.4c0,117.1,0,233.8,0,350.5c17.3,0,34.2,0,51.7,0c0-79.6,0-159,0-238.7c60.5,0,120.6,0,180.8,0c0-37.4,0-74.5,0-111.7
		C486.9,159.4,409.6,159.4,332,159.4z M47.6,271.4c60.8,0,121.3,0,182,0c0,79.8,0,159.1,0,238.5c16.8,0,33.3,0,49.9,0
		c0-116.9,0-233.5,0-350.2c-77.4,0-154.6,0-231.9,0C47.6,196.8,47.6,233.7,47.6,271.4z"/>
	<path d="M561.8,307.9c0,116.1,0,231.9,0,347.9c-76.8,0-153.2,0-229.9,0c-0.1-1.3-0.2-2.5-0.2-3.7c0-33.5,0-67-0.1-100.5
		c0-3.6,0.9-4.7,4.6-4.7c33.6,0.1,67.3,0.1,100.9,0.1c5.3,0,5.8-0.4,5.8-5.5c0-76.6,0-153.2-0.1-229.8c0-2.5,0.1-4.2,3.4-4.2
		c37.9,0.1,75.8,0.1,113.7,0.1C560.3,307.6,560.9,307.7,561.8,307.9z"/>
	<path d="M49.3,655.6c0-116.1,0-231.9,0-348.1c1.5,0,2.9,0,4.2,0c36.2,0,72.5,0,108.7,0c5.1,0,5,0,5,5.3
		c-0.1,11.1-0.1,22.2-0.1,33.3c0,64.8,0,129.6,0,194.3c0,6.4,0.2,6.5,6.4,6.5c33.9,0,67.8,0,101.7,0c2.7,0,4.6,0.1,4.5,3.8
		c-0.1,34.3-0.1,68.6-0.1,102.9c0,0.5-0.1,1.1-0.2,1.9C202.8,655.6,126.2,655.6,49.3,655.6z"/>
	<path d="M332,159.4c77.6,0,154.9,0,232.4,0c0,37.2,0,74.3,0,111.7c-60.2,0-120.2,0-180.8,0c0,79.7,0,159.1,0,238.7
		c-17.4,0-34.4,0-51.7,0C332,393.2,332,276.5,332,159.4z"/>
	<path d="M47.6,271.4c0-37.7,0-74.6,0-111.8c77.3,0,154.5,0,231.9,0c0,116.7,0,233.3,0,350.2c-16.5,0-33,0-49.9,0
		c0-79.4,0-158.7,0-238.5C168.8,271.4,108.4,271.4,47.6,271.4z"/>
		
</g>
</svg>
